<?xml version="1.0" encoding="UTF-8"?>
<svg width="341px" height="223px" viewBox="0 0 341 223" version="1.1" xmlns="http://www.w3.org/2000/svg" xmlns:xlink="http://www.w3.org/1999/xlink">
    <title>Slice 1</title>
    <g id="Page-1" stroke="none" stroke-width="1" fill="none" fill-rule="evenodd">
        <g id="Group-2" transform="translate(59.6924, -7.0366)">
            <path d="M2.84217094e-14,118.863948 C36.4008192,118.863948 73.2010922,118.863948 110.400819,118.863948 M11.9975642,93.3484757 L38.4496083,118.863948 L11.9975642,144.266653 M50.8224102,101.387164 L69.2076287,118.422035 L50.8224102,135.686115" id="Path-8" stroke="#FFFFFF" stroke-width="16" stroke-linecap="round"></path>
            <path d="M18.6301043,73.8868978 C55.0309234,73.8868978 91.8311965,73.8868978 129.030923,73.8868978 M30.6276685,48.3714253 L57.0797126,73.8868978 L30.6276685,99.2896024 M69.4525145,56.410114 L87.8377329,73.4449843 L69.4525145,90.7090647" id="Path-8" stroke="#FFFFFF" stroke-width="16" stroke-linecap="round" transform="translate(73.8305, 73.8305) rotate(45) translate(-73.8305, -73.8305)"></path>
            <path d="M63.6071547,55.2567936 C100.007974,55.2567936 136.808247,55.2567936 174.007974,55.2567936 M75.6047189,29.741321 L102.056763,55.2567936 L75.6047189,80.6594981 M114.429565,37.7800097 L132.814783,54.8148801 L114.429565,72.0789604" id="Path-8" stroke="#FFFFFF" stroke-width="16" stroke-linecap="round" transform="translate(118.8076, 55.2004) rotate(90) translate(-118.8076, -55.2004)"></path>
            <path d="M108.584205,73.8868978 C144.985024,73.8868978 181.785297,73.8868978 218.985024,73.8868978 M120.581769,48.3714253 L147.033813,73.8868978 L120.581769,99.2896024 M159.406615,56.410114 L177.791834,73.4449843 L159.406615,90.7090647" id="Path-8" stroke="#FFFFFF" stroke-width="16" stroke-linecap="round" transform="translate(163.7846, 73.8305) rotate(135) translate(-163.7846, -73.8305)"></path>
            <path d="M127.214309,118.863948 C163.615128,118.863948 200.415402,118.863948 237.615128,118.863948 M139.211874,93.3484757 L165.663918,118.863948 L139.211874,144.266653 M178.03672,101.387164 L196.421938,118.422035 L178.03672,135.686115" id="Path-8" stroke="#FFFFFF" stroke-width="16" stroke-linecap="round" transform="translate(182.4147, 118.8076) rotate(180) translate(-182.4147, -118.8076)"></path>
            <path d="M108.584205,163.840999 C144.985024,163.840999 181.785297,163.840999 218.985024,163.840999 M120.581769,138.325526 L147.033813,163.840999 L120.581769,189.243703 M159.406615,146.364215 L177.791834,163.399085 L159.406615,180.663165" id="Path-8" stroke="#FFFFFF" stroke-width="16" stroke-linecap="round" transform="translate(163.7846, 163.7846) rotate(225) translate(-163.7846, -163.7846)"></path>
            <path d="M63.6071547,182.471103 C100.007974,182.471103 136.808247,182.471103 174.007974,182.471103 M75.6047189,156.95563 L102.056763,182.471103 L75.6047189,207.873807 M114.429565,164.994319 L132.814783,182.029189 L114.429565,199.29327" id="Path-8" stroke="#FFFFFF" stroke-width="16" stroke-linecap="round" transform="translate(118.8076, 182.4147) rotate(270) translate(-118.8076, -182.4147)"></path>
            <path d="M18.6301043,163.840999 C55.0309234,163.840999 91.8311965,163.840999 129.030923,163.840999 M30.6276685,138.325526 L57.0797126,163.840999 L30.6276685,189.243703 M69.4525145,146.364215 L87.8377329,163.399085 L69.4525145,180.663165" id="Path-8" stroke="#FFFFFF" stroke-width="16" stroke-linecap="round" transform="translate(73.8305, 163.7846) rotate(315) translate(-73.8305, -163.7846)"></path>
            <circle id="Oval" fill="#FFFFFF" cx="118.807564" cy="118.53664" r="2.5"></circle>
        </g>
    </g>
</svg>