<?xml version="1.0" encoding="UTF-8"?>
<svg width="336px" height="264px" viewBox="0 0 336 264" version="1.1" xmlns="http://www.w3.org/2000/svg" xmlns:xlink="http://www.w3.org/1999/xlink">
    <title>Slice 1</title>
    <g id="Page-1" stroke="none" stroke-width="1" fill="none" fill-rule="evenodd">
        <g id="cloud_light" transform="translate(8.886, 8.4538)" stroke="#FFFFFF" stroke-width="16">
            <path d="M142.531053,84.483753 C129.354683,84.483753 117.730916,85.5664127 108.054026,89.0798058 C95.090359,93.7865309 77.8362199,103.715971 58.59375,129.480456 C58.4189453,129.47948 58.2509766,129.450183 58.0751953,129.450183 C26.0058594,129.450183 0,155.828112 0,188.37987 C0,220.930651 26.0058594,247.339831 58.0751953,247.339831 C69.5400391,247.339831 80.2001953,243.91405 89.203125,238.092761 L155.425781,238.092761 L245.575195,238.092761 L252.777344,238.092761 C269.5383,238.092761 291.366163,236.956631 299.026133,211.062112 C300.216129,207.039331 300.017633,201.901315 300.017633,196.468569 C300.017633,181.368318 291.861149,161.388063 279.293013,146.150612 C273.242242,138.814732 263.718967,126.757895 240.94369,123.443975 C222.079925,120.6992 206.827946,131.134152 206.827946,129.450183 C199.778479,118.136816 186.627631,89.0035839 155.425781,85.490533 C151.861328,85.0892073 146.202869,84.483753 142.531053,84.483753 Z" id="Path"></path>
            <g id="Group" transform="translate(230.599, 69.8119) rotate(-2) translate(-230.599, -69.8119)translate(144.5401, 2.9627)">
                <path d="M117.547488,128.12034 C125.595361,119.206196 130.49873,107.374994 130.49873,94.3934429 C130.49873,66.6560746 108.112967,44.1704948 80.49873,44.1704948 C55.528399,44.1704948 34.4840056,63.1677817 30.7500274,87.1972268" id="Path"></path>
                <line x1="39.2484956" y1="9.73231531" x2="50.1692204" y2="26.6338856" id="Path-2" stroke-linecap="round"></line>
                <line x1="94.8715546" y1="3.55271368e-15" x2="93.718289" y2="20.0581084" id="Path-2" stroke-linecap="round"></line>
                <line x1="145.623059" y1="24.6446257" x2="132.836311" y2="40.1977566" id="Path-2" stroke-linecap="round"></line>
                <line x1="172.117659" y1="74.252783" x2="152.581532" y2="79.3601691" id="Path-2" stroke-linecap="round"></line>
                <line x1="164.235318" y1="129.875842" x2="145.411949" y2="122.586635" id="Path-2" stroke-linecap="round"></line>
                <line x1="0" y1="50.124158" x2="18.8233695" y2="57.4133647" id="Path-2" stroke-linecap="round"></line>
            </g>
        </g>
    </g>
</svg>