<?xml version="1.0" encoding="UTF-8"?>
<svg width="260px" height="260px" viewBox="0 0 260 260" version="1.1" xmlns="http://www.w3.org/2000/svg" xmlns:xlink="http://www.w3.org/1999/xlink">
    <title>Slice 1</title>
    <g id="Page-1" stroke="none" stroke-width="1" fill="none" fill-rule="evenodd">
        <g id="Group" transform="translate(8.0899, 8.0899)" stroke="#000000" stroke-width="16">
            <circle id="Oval" cx="121.910095" cy="119.910095" r="57"></circle>
            <line x1="121.910095" y1="-7.10542736e-15" x2="121.910095" y2="33.545223" id="Path-2" stroke-linecap="round"></line>
            <line x1="196.253523" y1="30.7940561" x2="196.253523" y2="64.3392791" id="Path-2" stroke-linecap="round" transform="translate(196.2535, 47.5667) rotate(45) translate(-196.2535, -47.5667)"></line>
            <line x1="227.047579" y1="105.137484" x2="227.047579" y2="138.682707" id="Path-2" stroke-linecap="round" transform="translate(227.0476, 121.9101) rotate(90) translate(-227.0476, -121.9101)"></line>
            <line x1="196.253523" y1="179.480912" x2="196.253523" y2="213.026135" id="Path-2" stroke-linecap="round" transform="translate(196.2535, 196.2535) rotate(135) translate(-196.2535, -196.2535)"></line>
            <line x1="121.910095" y1="210.274968" x2="121.910095" y2="243.820191" id="Path-2" stroke-linecap="round" transform="translate(121.9101, 227.0476) rotate(180) translate(-121.9101, -227.0476)"></line>
            <line x1="47.5666676" y1="179.480912" x2="47.5666676" y2="213.026135" id="Path-2" stroke-linecap="round" transform="translate(47.5667, 196.2535) rotate(225) translate(-47.5667, -196.2535)"></line>
            <line x1="16.7726115" y1="105.137484" x2="16.7726115" y2="138.682707" id="Path-2" stroke-linecap="round" transform="translate(16.7726, 121.9101) rotate(270) translate(-16.7726, -121.9101)"></line>
            <line x1="47.5666676" y1="30.7940561" x2="47.5666676" y2="64.3392791" id="Path-2" stroke-linecap="round" transform="translate(47.5667, 47.5667) rotate(315) translate(-47.5667, -47.5667)"></line>
        </g>
    </g>
</svg>