<?xml version="1.0" encoding="UTF-8"?>
<svg width="1000px" height="1000px" viewBox="0 0 1000 1000" version="1.1" xmlns="http://www.w3.org/2000/svg" xmlns:xlink="http://www.w3.org/1999/xlink">
    <title>Slice 1</title>
    <g id="Page-1" stroke="none" stroke-width="1" fill="none" fill-rule="evenodd">
        <g id="JUDA_AppLogo_ver1">
            <g id="레이어-5" fill="#FFFFFF" fill-rule="nonzero">
                <polygon id="Path" points="0 0 1000 0 1000 1000 0 1000"></polygon>
            </g>
            <g id="레이어-1" transform="translate(344.269, 211.636)" fill-rule="nonzero">
                <path d="M0,318.057617 L0,402.103516 C0,448.520508 41.8505859,486.148437 93.4755859,486.148437 C145.100586,486.148437 186.951172,448.520508 186.951172,402.103516 L186.951172,318.057617 L93.4755859,318.057617 L0,318.057617 Z" id="Path" fill="#FFFFFF"></path>
                <path d="M186.94043,415.714844 C186.94043,400.272461 199.458984,387.75293 214.901367,387.75293 L376.325195,387.75293 C391.767578,387.75293 404.286133,400.272461 404.286133,415.714844 L404.286133,566.032227 C404.286133,581.474609 391.767578,593.994141 376.325195,593.994141 L214.901367,593.994141 C199.458984,593.994141 186.94043,581.474609 186.94043,566.032227 L186.94043,415.714844 Z" id="Path" fill="#FFFFFF"></path>
                <polygon id="Path" fill="#FE7A36" points="247.822266 0 343.3125 0 343.3125 53.7412109 247.822266 53.7412109"></polygon>
            </g>
            <g id="레이어-3" transform="translate(376.942, 211.636)" fill="#FE7A36" fill-rule="nonzero">
                <path d="M313.738281,389.352539 L314.014648,408.166016 C314.014648,413.051758 310.574219,416.739258 305.688477,416.739258 L194.854492,416.808594 C194.825195,417.355469 194.702148,417.871094 194.702148,418.425781 L194.702148,531.21875 C194.702148,547.724609 208.073242,561.095703 224.579102,561.095703 L341.735352,561.095703 C358.241211,561.095703 371.612305,547.724609 371.612305,531.21875 L371.612305,418.425781 C371.612305,401.920898 358.241211,388.549805 341.735352,388.549805 L313.738281,389.352539 Z" id="Path"></path>
                <path d="M0,318.053711 L0,398.856445 C0,399.677734 0.13671875,400.474609 0.213867188,401.28418 C2.36914063,424.137695 34.4384766,442.299805 73.8222656,442.299805 C113.206055,442.299805 145.305664,424.137695 147.460938,401.28418 L154.266602,329.650391 L154.266602,318.053711 L0,318.053711 Z" id="Path"></path>
                <polygon id="Path" points="254.888672 2.84217094e-14 305.688477 2.84217094e-14 305.688477 53.7412109 254.888672 53.7412109"></polygon>
            </g>
            <g id="레이어-4" opacity="0.2" transform="translate(420.094, 211.636)" fill="#000000" fill-rule="nonzero">
                <path d="M229.370117,-2.84217094e-14 L228.851562,46.1425781 C228.87207,46.1503906 228.891602,46.1640625 228.913086,46.1728516 L228.913086,44.9521484 C239.831055,49.6689453 247.436523,59.8115234 247.436523,71.6552734 C247.436523,83.7207031 239.572266,95.0371094 228.322266,99.6308594 L226.59375,256.164063 C226.59375,256.164063 226.00293,260.089844 228.455078,262.786133 C230.907227,265.483398 234.956055,266.978516 236.389648,267.456055 C261.111328,275.664062 270.661133,295.612305 270.661133,318.053711 L270.661133,394.103516 L270.661133,415.893555 L270.661133,539.611328 C270.660156,557.857422 254.283203,574.924805 240.021484,584.899414 L321.320312,590.576172 L325.40918,264.404297 L325.195312,257.78125 L319.580078,255.30957 L317.71875,247.436523 L310.486328,250.579102 L310.486328,237.853516 L303.009766,237.853516 L303.009766,225.158203 L287.506836,225.158203 L284.027344,215.728516 L262.542969,213.134766 L262.542969,108.642578 L282.776367,108.642578 L282.654297,53.7412109 L262.542969,53.7412109 L262.542969,-2.84217094e-14 L229.370117,-2.84217094e-14 Z" id="Path"></path>
                <path d="M82.7636719,318.053711 L82.7636719,402.404297 C82.7636719,441.450195 45.7099609,473.113281 5.68434189e-14,473.113281 L9.45605469,483.539062 L72.2353516,474.822266 L91.0644531,463.713867 L111.115234,463.713867 L111.115234,318.053711 L82.7636719,318.053711 Z" id="Path"></path>
                <path d="M13.0615234,550.383789 L13.0615234,556.915039 C14.1494141,557.052734 15.0908203,557.075195 16.2050781,557.250977 C33.1494141,559.928711 46.8291016,565.859375 46.6669922,570.876953 C46.5400391,574.803711 42.3535156,576.458984 37.5332031,577.045898 L16.5517578,577.447266 C13.3642578,577.447266 7.1015625,582.499023 7.1015625,585.686523 L5.68434189e-14,598.50293 L40.3544922,598.438477 L91.0644531,598.357422 L91.0644531,567.931641 L68.5732422,567.931641 L68.5732422,550.383789 L13.0615234,550.383789 Z" id="Path"></path>
            </g>
            <g id="레이어-4-복사" transform="translate(494.171, 211.64)" fill="#FF5636" fill-rule="nonzero">
                <path d="M155.303711,-2.84217094e-14 L154.785156,46.1425781 C154.806641,46.1503906 154.825195,46.1640625 154.84668,46.1728516 L154.84668,44.9521484 C159.519531,46.9707031 163.503906,50.0273438 166.625977,53.7412109 L188.446289,53.7412109 L188.446289,-2.84217094e-14 L155.303711,-2.84217094e-14 Z" id="Path"></path>
                <path d="M8.69824219,318.053711 L8.69824219,402.404297 C8.69824219,413.689453 5.50488281,424.311523 -5.68434189e-14,433.776367 C17.265625,426.317383 28.9804688,414.666016 30.2431641,401.275391 L37.0380859,351.314453 L37.0488281,318.053711 L8.69824219,318.053711 Z" id="Path"></path>
                <path d="M224.518555,388.549805 L196.594727,389.342773 L196.594727,394.103516 L196.594727,395.629883 L196.777344,408.172852 C196.777344,408.535156 196.631836,408.830078 196.594727,409.179688 L196.594727,415.893555 L196.594727,539.611328 C196.594727,547.124023 193.714844,554.396484 189.453125,561.095703 L224.518555,561.095703 C233.982422,561.095703 242.298828,556.605469 247.772461,549.743164 C251.844727,544.637695 254.394531,538.260742 254.394531,531.219727 L254.394531,418.426758 C254.394531,412.494141 257.374023,400.277344 254.394531,395.629883 C249.08496,387.34668 235.09082,388.549805 224.518555,388.549805 Z" id="Path"></path>
            </g>
            <g id="레이어-2" stroke-linejoin="round" transform="translate(187.886, 189.861)" stroke="#000000" stroke-width="16">
                <path d="M415.130859,21.7744141 C409.09668,21.7744141 404.205078,26.6650391 404.205078,32.6992187 L404.205078,75.515625 L499.695313,75.515625 L499.695313,32.6992187 C499.695313,26.6650391 494.803711,21.7744141 488.769531,21.7744141 L415.130859,21.7744141 Z" id="Path"></path>
                <path d="M392.517578,75.515625 C387.678711,75.515625 383.758789,79.4355469 383.758789,84.2744141 L383.758789,121.658203 C383.758789,126.496094 387.678711,130.416992 392.517578,130.416992 L404.205078,130.416992 L499.695313,130.416992 L510.956055,130.416992 C515.793945,130.416992 519.714844,126.49707 519.714844,121.658203 L519.714844,84.2744141 C519.714844,79.4355469 515.793945,75.515625 510.956055,75.515625 L499.695313,75.515625 L404.205078,75.515625 L392.517578,75.515625 Z" id="Path"></path>
                <path d="M343.323242,409.896484 L343.323242,358.566406 L343.323242,351.424805 L343.323242,311.874023 C343.323242,308.302734 343.620117,304.798828 344.177734,301.345703 C344.657227,298.37207 345.382813,295.455078 346.25293,292.586914 C346.261719,292.556641 346.273438,292.525391 346.283203,292.495117 C346.291992,292.464844 346.303711,292.43457 346.313477,292.404297 C346.513672,291.745117 346.750977,291.098633 346.985352,290.451172 C347.046875,290.267578 347.103516,290.083008 347.167969,289.901367 C347.224609,289.737305 347.292969,289.577148 347.351563,289.413086 C348.086914,287.34668 348.897461,285.30957 349.823242,283.30957 C349.833008,283.289062 349.84375,283.269531 349.853516,283.249023 C349.886719,283.177734 349.912109,283.105469 349.945313,283.035156 C350.136719,282.626953 350.326172,282.21875 350.525391,281.814453 C350.550781,281.760742 350.59082,281.714844 350.616211,281.662109 C350.791992,281.305664 350.954102,280.947266 351.135742,280.59375 C352.582031,277.78418 354.150391,275.007813 355.957031,272.353516 L171.570313,272.353516 C163.169922,272.353516 156.37207,279.151367 156.37207,287.551758 L156.37207,311.874023 L156.37207,336.227539 L156.37207,409.896484 C156.37207,463.942383 201.450195,507.773438 257.110352,507.918945 L257.385742,507.918945 C293.75293,507.918945 325.535156,489.208984 343.323242,461.227539" id="Path"></path>
                <path d="M343.323242,461.227539 L343.323242,532.913086 L343.323242,541.702148 L343.323242,573.745117 C343.323242,596.955078 362.135742,615.768555 385.345703,615.768555 L518.646484,615.768555 C541.856445,615.768555 560.668945,596.956055 560.668945,573.745117 L560.668945,541.702148 L560.668945,532.913086 L560.668945,311.874023 C560.668945,278.49707 535.773437,249.734375 499.695312,235.976562 L499.695312,130.416992 L404.205078,130.416992 L404.205078,236.007812 C383.616211,243.880859 366.675781,256.609375 355.957031,272.353516 C354.150391,275.007812 352.582031,277.78418 351.135742,280.59375 C350.954102,280.947266 350.791992,281.305664 350.616211,281.662109 C350.392578,282.119141 350.161133,282.573242 349.945312,283.035156 C349.912109,283.105469 349.886719,283.177734 349.853516,283.249023 C348.916016,285.268555 348.094727,287.325195 347.351562,289.413086 C347.228516,289.758789 347.102539,290.103516 346.985352,290.451172 C346.750977,291.098633 346.513672,291.745117 346.313477,292.404297 C346.304687,292.43457 346.291992,292.464844 346.283203,292.495117 C345.401367,295.393555 344.662109,298.339844 344.177734,301.345703 C343.620117,304.797852 343.323242,308.302734 343.323242,311.874023 L343.323242,351.424805 L343.323242,358.566406 L343.323242,409.896484" id="Path" stroke-linecap="round"></path>
                <polygon id="Path" points="242.114258 616.268555 642.114258 616.268555 642.114258 616.268555"></polygon>
                <path d="M212.114258,616.268555 L42.1142578,616.268555 L212.114258,616.268555 Z" id="Path"></path>
                <polygon id="Path" points="257.128473 507.927734 256.165473 507.927734 256.165473 557.992187 257.128473 557.992187"></polygon>
                <path d="M323.211914,616.256836 C323.219727,615.959961 323.272461,615.668945 323.272461,615.371094 C323.272461,589.773437 293.230469,569.045898 256.165039,569.045898 C219.099609,569.045898 189.056641,589.773437 189.056641,615.371094 C189.056641,615.668945 189.109375,615.960937 189.117187,616.256836" id="Path"></path>
                <line x1="156.37207" y1="339.839844" x2="343.323242" y2="339.839844" id="Path" stroke-linecap="round"></line>
                <line x1="343.323242" y1="411.126953" x2="560.668945" y2="409.527344" id="Path" stroke-linecap="round"></line>
                <path d="M155.425781,0 C105.094727,0 63.6777344,38.5869141 58.59375,88.0732422 C58.4189453,88.0722656 58.2509766,88.0429687 58.0751953,88.0429687 C26.0058594,88.0429687 2.84217094e-14,114.420898 2.84217094e-14,146.972656 C2.84217094e-14,179.523437 26.0058594,205.932617 58.0751953,205.932617 C69.5400391,205.932617 80.2001953,202.506836 89.203125,196.685547 L155.425781,196.685547 L245.575195,196.685547 L252.777344,196.685547 L252.777344,196.349609 C292.307617,192.886719 323.272461,161.189453 323.272461,122.558594 C323.272461,81.6132812 288.476562,48.4003906 245.575195,48.4003906 C243.47168,48.4003906 241.411133,48.5488281 239.349609,48.7060547 C222.442383,19.6083984 191.239258,0 155.425781,0 Z" id="Path" stroke-linecap="round"></path>
            </g>
        </g>
    </g>
</svg>