<?xml version="1.0" encoding="UTF-8"?>
<svg width="1000px" height="1000px" viewBox="0 0 1000 1000" version="1.1" xmlns="http://www.w3.org/2000/svg" xmlns:xlink="http://www.w3.org/1999/xlink">
    <title>Slice 1</title>
    <g id="Page-1" stroke="none" stroke-width="1" fill="none" fill-rule="evenodd">
        <g id="JUDA_AppLogo_ver2">
            <g id="레이어-5" fill="#FFFFFF" fill-rule="nonzero">
                <polygon id="Path" points="0 0 1000 0 1000 1000 0 1000"></polygon>
            </g>
            <g id="레이어-1" transform="translate(314.269, 201.636)" fill-rule="nonzero">
                <path d="M5.68434189e-14,318.057617 L5.68434189e-14,402.103516 C5.68434189e-14,448.520508 41.8505859,486.148437 93.4755859,486.148437 C145.100586,486.148437 186.951172,448.520508 186.951172,402.103516 L186.951172,318.057617 L93.4755859,318.057617 L5.68434189e-14,318.057617 Z" id="Path" fill="#FFFFFF"></path>
                <path d="M186.94043,415.714844 C186.94043,400.272461 199.458984,387.75293 214.901367,387.75293 L376.325195,387.75293 C391.767578,387.75293 404.286133,400.272461 404.286133,415.714844 L404.286133,566.032227 C404.286133,581.474609 391.767578,593.994141 376.325195,593.994141 L214.901367,593.994141 C199.458984,593.994141 186.94043,581.474609 186.94043,566.032227 L186.94043,415.714844 Z" id="Path" fill="#FFFFFF"></path>
                <polygon id="Path" fill="#FE7A36" points="237.822266 3.55271368e-14 333.3125 3.55271368e-14 333.3125 53.7412109 237.822266 53.7412109"></polygon>
            </g>
            <g id="레이어-3" transform="translate(336.942, 201.636)" fill="#FE7A36" fill-rule="nonzero">
                <path d="M313.738281,389.352539 L314.014648,408.166016 C314.014648,413.051758 310.574219,416.739258 305.688477,416.739258 L194.854492,416.808594 C194.825195,417.355469 194.702148,417.871094 194.702148,418.425781 L194.702148,531.21875 C194.702148,547.724609 208.073242,561.095703 224.579102,561.095703 L341.735352,561.095703 C358.241211,561.095703 371.612305,547.724609 371.612305,531.21875 L371.612305,418.425781 C371.612305,401.920898 358.241211,388.549805 341.735352,388.549805 L313.738281,389.352539 Z" id="Path"></path>
                <path d="M-5.68434189e-14,318.053711 L-5.68434189e-14,398.856445 C-5.68434189e-14,399.677734 0.13671875,400.474609 0.213867188,401.28418 C2.36914063,424.137695 34.4384766,442.299805 73.8222656,442.299805 C113.206055,442.299805 145.305664,424.137695 147.460938,401.28418 L154.266602,329.650391 L154.266602,318.053711 L-5.68434189e-14,318.053711 Z" id="Path"></path>
                <polygon id="Path" points="254.888672 -3.55271368e-14 305.688477 -3.55271368e-14 305.688477 53.7412109 254.888672 53.7412109"></polygon>
            </g>
            <g id="레이어-4" opacity="0.2" transform="translate(380.094, 201.636)" fill="#000000" fill-rule="nonzero">
                <path d="M229.370117,3.55271368e-14 L228.851562,46.1425781 C228.87207,46.1503906 228.891602,46.1640625 228.913086,46.1728516 L228.913086,44.9521484 C239.831055,49.6689453 247.436523,59.8115234 247.436523,71.6552734 C247.436523,83.7207031 239.572266,95.0371094 228.322266,99.6308594 L226.59375,256.164063 C226.59375,256.164063 226.00293,260.089844 228.455078,262.786133 C230.907227,265.483398 234.956055,266.978516 236.389648,267.456055 C261.111328,275.664062 270.661133,295.612305 270.661133,318.053711 L270.661133,394.103516 L270.661133,415.893555 L270.661133,539.611328 C270.660156,557.857422 254.283203,574.924805 240.021484,584.899414 L321.320312,590.576172 L325.40918,264.404297 L325.195312,257.78125 L319.580078,255.30957 L317.71875,247.436523 L310.486328,250.579102 L310.486328,237.853516 L303.009766,237.853516 L303.009766,225.158203 L287.506836,225.158203 L284.027344,215.728516 L262.542969,213.134766 L262.542969,108.642578 L282.776367,108.642578 L282.654297,53.7412109 L262.542969,53.7412109 L262.542969,3.55271368e-14 L229.370117,3.55271368e-14 Z" id="Path"></path>
                <path d="M82.7636719,318.053711 L82.7636719,402.404297 C82.7636719,441.450195 45.7099609,473.113281 5.68434189e-14,473.113281 L9.45605469,483.539062 L72.2353516,474.822266 L91.0644531,463.713867 L111.115234,463.713867 L111.115234,318.053711 L82.7636719,318.053711 Z" id="Path"></path>
                <path d="M13.0615234,550.383789 L13.0615234,556.915039 C14.1494141,557.052734 15.0908203,557.075195 16.2050781,557.250977 C33.1494141,559.928711 46.8291016,565.859375 46.6669922,570.876953 C46.5400391,574.803711 42.3535156,576.458984 37.5332031,577.045898 L16.5517578,577.447266 C13.3642578,577.447266 7.1015625,582.499023 7.1015625,585.686523 L5.68434189e-14,598.50293 L40.3544922,598.438477 L91.0644531,598.357422 L91.0644531,567.931641 L68.5732422,567.931641 L68.5732422,550.383789 L13.0615234,550.383789 Z" id="Path"></path>
            </g>
            <g id="레이어-4-복사" transform="translate(454.171, 201.64)" fill="#FF5636" fill-rule="nonzero">
                <path d="M155.303711,-2.84217094e-14 L154.785156,46.1425781 C154.806641,46.1503906 154.825195,46.1640625 154.84668,46.1728516 L154.84668,44.9521484 C159.519531,46.9707031 163.503906,50.0273438 166.625977,53.7412109 L188.446289,53.7412109 L188.446289,-2.84217094e-14 L155.303711,-2.84217094e-14 Z" id="Path"></path>
                <path d="M8.69824219,318.053711 L8.69824219,402.404297 C8.69824219,413.689453 5.50488281,424.311523 0,433.776367 C17.265625,426.317383 28.9804688,414.666016 30.2431641,401.275391 L37.0380859,351.314453 L37.0488281,318.053711 L8.69824219,318.053711 Z" id="Path"></path>
                <path d="M224.518555,388.549805 L196.594727,389.342773 L196.594727,394.103516 L196.594727,395.629883 L196.777344,408.172852 C196.777344,408.535156 196.631836,408.830078 196.594727,409.179688 L196.594727,415.893555 L196.594727,539.611328 C196.594727,547.124023 193.714844,554.396484 189.453125,561.095703 L224.518555,561.095703 C233.982422,561.095703 242.298828,556.605469 247.772461,549.743164 C251.844727,544.637695 254.394531,538.260742 254.394531,531.219727 L254.394531,418.426758 C254.394531,412.494141 254.311672,400.277344 251.33218,395.629883 C246.022609,387.34668 235.09082,388.549805 224.518555,388.549805 Z" id="Path"></path>
            </g>
            <g id="레이어-2" stroke-linejoin="round" transform="translate(240, 201.636)" stroke="#000000" stroke-width="16">
                <path d="M323.016602,0 C316.982422,0 312.09082,4.890625 312.09082,10.9248047 L312.09082,53.7412109 L407.581055,53.7412109 L407.581055,10.9248047 C407.581055,4.890625 402.689453,0 396.655273,0 L323.016602,0 Z" id="Path"></path>
                <path d="M300.40332,53.7412109 C295.564453,53.7412109 291.644531,57.6611328 291.644531,62.5 L291.644531,99.8837891 C291.644531,104.72168 295.564453,108.642578 300.40332,108.642578 L312.09082,108.642578 L407.581055,108.642578 L418.841797,108.642578 C423.679688,108.642578 427.600586,104.722656 427.600586,99.8837891 L427.600586,62.5 C427.600586,57.6611328 423.679688,53.7412109 418.841797,53.7412109 L407.581055,53.7412109 L312.09082,53.7412109 L300.40332,53.7412109 Z" id="Path"></path>
                <path d="M251.208984,388.12207 L251.208984,336.791992 L251.208984,329.650391 L251.208984,290.099609 C251.208984,286.52832 251.505859,283.024414 252.063477,279.571289 C252.542969,276.597656 253.268555,273.680664 254.138672,270.8125 C254.147461,270.782227 254.15918,270.750977 254.168945,270.720703 C254.177734,270.69043 254.189453,270.660156 254.199219,270.629883 C254.399414,269.970703 254.636719,269.324219 254.871094,268.676758 C254.932617,268.493164 254.989258,268.308594 255.053711,268.126953 C255.110352,267.962891 255.178711,267.802734 255.237305,267.638672 C255.972656,265.572266 256.783203,263.535156 257.708984,261.535156 C257.71875,261.514648 257.729492,261.495117 257.739258,261.474609 C257.772461,261.40332 257.797852,261.331055 257.831055,261.260742 C258.022461,260.852539 258.211914,260.444336 258.411133,260.040039 C258.436523,259.986328 258.476562,259.94043 258.501953,259.887695 C258.677734,259.53125 258.839844,259.172852 259.021484,258.819336 C260.467773,256.009766 262.036133,253.233398 263.842773,250.579102 L79.4560547,250.579102 C71.0556641,250.579102 64.2578125,257.376953 64.2578125,265.777344 L64.2578125,290.099609 L64.2578125,314.453125 L64.2578125,388.12207 C64.2578125,442.167969 109.335938,485.999023 164.996094,486.144531 L165.271484,486.144531 C201.638672,486.144531 233.420898,467.43457 251.208984,439.453125" id="Path"></path>
                <path d="M251.208984,439.453125 L251.208984,511.138672 L251.208984,519.927734 L251.208984,551.970703 C251.208984,575.180664 270.021484,593.994141 293.231445,593.994141 L426.532227,593.994141 C449.742187,593.994141 468.554687,575.181641 468.554687,551.970703 L468.554687,519.927734 L468.554687,511.138672 L468.554687,290.099609 C468.554687,256.722656 443.65918,227.959961 407.581055,214.202148 L407.581055,108.642578 L312.09082,108.642578 L312.09082,214.233398 C291.501953,222.106445 274.561523,234.834961 263.842773,250.579102 C262.036133,253.233398 260.467773,256.009766 259.021484,258.819336 C258.839844,259.172852 258.677734,259.53125 258.501953,259.887695 C258.27832,260.344727 258.046875,260.798828 257.831055,261.260742 C257.797852,261.331055 257.772461,261.40332 257.739258,261.474609 C256.801758,263.494141 255.980469,265.550781 255.237305,267.638672 C255.114258,267.984375 254.988281,268.329102 254.871094,268.676758 C254.636719,269.324219 254.399414,269.970703 254.199219,270.629883 C254.19043,270.660156 254.177734,270.69043 254.168945,270.720703 C253.287109,273.619141 252.547852,276.56543 252.063477,279.571289 C251.505859,283.023438 251.208984,286.52832 251.208984,290.099609 L251.208984,329.650391 L251.208984,336.791992 L251.208984,388.12207" id="Path" stroke-linecap="round"></path>
                <polygon id="Path" points="150 594.494141 550 594.494141 550 594.494141"></polygon>
                <path d="M120,594.494141 L0,594.494141 L120,594.494141 Z" id="Path"></path>
                <polygon id="Path" points="165.014215 486.15332 164.051215 486.15332 164.051215 536.217773 165.014215 536.217773"></polygon>
                <path d="M231.097656,594.482422 C231.105469,594.185547 231.158203,593.894531 231.158203,593.59668 C231.158203,567.999023 201.116211,547.271484 164.050781,547.271484 C126.985352,547.271484 96.9423828,567.999023 96.9423828,593.59668 C96.9423828,593.894531 96.9951172,594.186523 97.0029297,594.482422" id="Path"></path>
                <line x1="64.2578125" y1="318.06543" x2="251.208984" y2="318.06543" id="Path" stroke-linecap="round"></line>
                <line x1="251.208984" y1="389.352539" x2="468.554688" y2="387.75293" id="Path" stroke-linecap="round"></line>
            </g>
        </g>
    </g>
</svg>