<?xml version="1.0" encoding="UTF-8"?>
<svg width="336px" height="264px" viewBox="0 0 336 264" version="1.1" xmlns="http://www.w3.org/2000/svg" xmlns:xlink="http://www.w3.org/1999/xlink">
    <title>Slice 1</title>
    <g id="Page-1" stroke="none" stroke-width="1" fill="none" fill-rule="evenodd">
        <g id="cloud_light" transform="translate(8.886, 92.9375)" stroke="#000000" stroke-width="16">
            <path d="M142.531053,0 C129.354683,0 117.730916,1.0826597 108.054026,4.59605282 C95.090359,9.30277791 77.8362199,19.2322183 58.59375,44.9967034 C58.4189453,44.9957268 58.2509766,44.9664299 58.0751953,44.9664299 C26.0058594,44.9664299 0,71.3443592 0,103.896117 C0,136.446898 26.0058594,162.856078 58.0751953,162.856078 C69.5400391,162.856078 80.2001953,159.430297 89.203125,153.609008 L155.425781,153.609008 L245.575195,153.609008 L252.777344,153.609008 C269.5383,153.609008 291.366163,152.472878 299.026133,126.578359 C300.216129,122.555578 300.017633,117.417562 300.017633,111.984816 C300.017633,96.8845646 291.861149,76.9043097 279.293013,61.666859 C273.242242,54.3309788 263.718967,42.2741418 240.94369,38.9602217 C222.079925,36.2154467 206.827946,46.6503986 206.827946,44.9664299 C199.778479,33.6530628 186.627631,4.51983087 155.425781,1.00678002 C151.861328,0.605454287 146.202869,0 142.531053,0 Z" id="Path"></path>
        </g>
        <g id="Group" transform="translate(239.485, 78.2657) rotate(-2) translate(-239.485, -78.2657)translate(153.4261, 11.4165)" stroke="#000000" stroke-width="16">
            <path d="M117.547488,128.12034 C125.595361,119.206196 130.49873,107.374994 130.49873,94.3934429 C130.49873,66.6560746 108.112967,44.1704948 80.49873,44.1704948 C55.528399,44.1704948 34.4840056,63.1677817 30.7500274,87.1972268" id="Path"></path>
            <line x1="39.2484956" y1="9.73231531" x2="50.1692204" y2="26.6338856" id="Path-2" stroke-linecap="round"></line>
            <line x1="94.8715546" y1="3.55271368e-15" x2="93.718289" y2="20.0581084" id="Path-2" stroke-linecap="round"></line>
            <line x1="145.623059" y1="24.6446257" x2="132.836311" y2="40.1977566" id="Path-2" stroke-linecap="round"></line>
            <line x1="172.117659" y1="74.252783" x2="152.581532" y2="79.3601691" id="Path-2" stroke-linecap="round"></line>
            <line x1="164.235318" y1="129.875842" x2="145.411949" y2="122.586635" id="Path-2" stroke-linecap="round"></line>
            <line x1="0" y1="50.124158" x2="18.8233695" y2="57.4133647" id="Path-2" stroke-linecap="round"></line>
        </g>
    </g>
</svg>