<?xml version="1.0" encoding="UTF-8"?>
<svg width="341px" height="223px" viewBox="0 0 341 223" version="1.1" xmlns="http://www.w3.org/2000/svg" xmlns:xlink="http://www.w3.org/1999/xlink">
    <title>Slice 1</title>
    <g id="Page-1" stroke="none" stroke-width="1" fill="none" fill-rule="evenodd" stroke-linecap="round">
        <g id="Group" transform="translate(8.886, 8.861)" stroke="#000000" stroke-width="16">
            <path d="M245.575195,196.685547 L252.777344,196.685547 L252.777344,196.349609 C292.307617,192.886719 323.272461,161.189453 323.272461,122.558594 C323.272461,81.6132812 288.476562,48.4003906 245.575195,48.4003906 C243.47168,48.4003906 241.411133,48.5488281 239.349609,48.7060547 C222.442383,19.6083984 191.239258,0 155.425781,0 C105.094727,0 63.6777344,38.5869141 58.59375,88.0732422 C58.4189453,88.0722656 58.2509766,88.0429687 58.0751953,88.0429687 C26.0058594,88.0429687 0,114.420898 0,146.972656 C0,179.523437 26.0058594,205.932617 58.0751953,205.932617 C69.5400391,205.932617 80.2001953,202.506836 89.203125,196.685547" id="Path" stroke-linejoin="round"></path>
            <line x1="125.184082" y1="178.206137" x2="105.114" y2="237.139" id="Path-2"></line>
            <line x1="222.386248" y1="178.206137" x2="202.316166" y2="237.139" id="Path-2"></line>
            <line x1="175.910652" y1="178.206137" x2="151.114" y2="262.139" id="Path-3"></line>
        </g>
    </g>
</svg>