<?xml version="1.0" encoding="UTF-8"?>
<svg width="341px" height="223px" viewBox="0 0 341 223" version="1.1" xmlns="http://www.w3.org/2000/svg" xmlns:xlink="http://www.w3.org/1999/xlink">
    <title>Slice 1</title>
    <g id="Page-1" stroke="none" stroke-width="1" fill="none" fill-rule="evenodd" stroke-linecap="round" stroke-linejoin="round">
        <path d="M164.311781,8.861 C113.980727,8.861 72.5637344,47.4479141 67.47975,96.9342422 C67.3049453,96.9332656 67.1369766,96.9039687 66.9611953,96.9039687 C34.8918594,96.9039687 8.886,123.281898 8.886,155.833656 C8.886,188.384437 34.8918594,214.793617 66.9611953,214.793617 C78.4260391,214.793617 89.0861953,211.367836 98.089125,205.546547 L164.311781,205.546547 L254.461195,205.546547 L261.663344,205.546547 L261.663344,205.210609 C301.193617,201.747719 332.158461,170.050453 332.158461,131.419594 C332.158461,90.4742812 297.362562,57.2613906 254.461195,57.2613906 C252.35768,57.2613906 250.297133,57.4098281 248.235609,57.5670547 C231.328383,28.4693984 200.125258,8.861 164.311781,8.861 Z" id="Path" stroke="#FFFFFF" stroke-width="16"></path>
    </g>
</svg>